<svg width="70" height="70" viewBox="0 0 70 70" fill="none" xmlns="http://www.w3.org/2000/svg">
<path fill-rule="evenodd" clip-rule="evenodd" d="M70 35C70 54.3301 54.3281 70 35 70C15.6719 70 0 54.3301 0 35C0 15.6699 15.6719 0 35 0C54.3281 0 70 15.6699 70 35ZM16 22C16 20.3433 17.3438 19 19 19H23C24.6562 19 26 20.3433 26 22V47C26 48.6567 24.6562 50 23 50H19C17.3438 50 16 48.6567 16 47V22ZM32 19C30.3438 19 29 20.3433 29 22V47C29 48.6567 30.3438 50 32 50H44.1797C61.0312 46.5 61.5156 21.5 44.1797 19H32Z" fill="#D8DEE9"/>
</svg>
